<?xml version="1.0" encoding="UTF-8"?>
<svg width="20px" height="31px" viewBox="0 0 20 31" version="1.1" xmlns="http://www.w3.org/2000/svg" xmlns:xlink="http://www.w3.org/1999/xlink">
    <!-- Generator: Sketch 49.3 (51167) - http://www.bohemiancoding.com/sketch -->
    <title>db@3x</title>
    <desc>Created with Sketch.</desc>
    <defs>
        <filter x="0.0%" y="0.0%" width="100.0%" height="100.0%" filterUnits="objectBoundingBox" id="filter-1">
            <feGaussianBlur stdDeviation="0" in="SourceGraphic"></feGaussianBlur>
        </filter>
    </defs>
    <g id="商户小程序" stroke="none" stroke-width="1" fill="none" fill-rule="evenodd">
        <g id="06商家位置" transform="translate(-178.000000, -398.000000)">
            <g id="db" transform="translate(178.000000, 398.000000)">
                <path d="M13.2617284,26.2860219 C13.2895062,26.37048 13.3044444,26.4570219 13.3044444,26.5451574 C13.3044444,27.4379123 11.8155556,28.1619961 9.97901235,28.1619961 C8.14234568,28.1619961 6.65358025,27.4379123 6.65358025,26.5451574 C6.65358025,26.4570219 6.66839506,26.37048 6.6962963,26.2860219 C4.6845679,26.6568284 3.32777778,27.3579897 3.32777778,28.1619961 C3.32777778,29.3531123 6.30555556,30.3185574 9.97901235,30.3185574 C13.6518519,30.3185574 16.6296296,29.3531123 16.6296296,28.1619961 C16.6296296,27.3579897 15.272963,26.656951 13.2617284,26.2860219" id="Fill-1" fill="#353542" filter="url(#filter-1)"></path>
                <path d="M9.91075309,0.122605161 C15.1948272,0.122605161 19.9505062,4.35396645 19.9505062,9.57381806 C19.9505062,14.5762116 9.79890123,26.0017084 9.79890123,26.0017084 C9.79890123,26.0017084 1.2345679e-05,14.41416 1.2345679e-05,9.57381806 C1.2345679e-05,4.35396645 4.62667901,0.122605161 9.91075309,0.122605161 Z M9.7254321,13.6689484 C11.5622222,13.6689484 13.0508642,12.2206581 13.0508642,10.4344129 C13.0508642,8.64804516 11.5622222,7.2 9.7254321,7.2 C7.88876543,7.2 6.4,8.64816774 6.4,10.4344129 C6.4,12.2206581 7.88876543,13.6689484 9.7254321,13.6689484 Z" id="Combined-Shape" fill="#4CCBD4"></path>
                <path d="M16.9046423,5.63753186 C16.4764418,6.2715199 15.0283271,6.0523435 13.6701447,5.14803789 C12.3121666,4.24352934 11.5583703,2.99645619 11.9867751,2.36246814 C12.4149756,1.7284801 13.8630904,1.9476565 15.2210684,2.85196211 C16.5792508,3.75647066 17.3328428,5.00354381 16.9046423,5.63753186" id="Fill-6" fill="#FFFFFF" opacity="0.6"></path>
            </g>
        </g>
    </g>
</svg>